<?xml version="1.0" encoding="UTF-8" standalone="no"?>
<svg
   xmlns:dc="http://purl.org/dc/elements/1.1/"
   xmlns:cc="http://creativecommons.org/ns#"
   xmlns:rdf="http://www.w3.org/1999/02/22-rdf-syntax-ns#"
   xmlns:svg="http://www.w3.org/2000/svg"
   xmlns="http://www.w3.org/2000/svg"
   xmlns:sodipodi="http://sodipodi.sourceforge.net/DTD/sodipodi-0.dtd"
   xmlns:inkscape="http://www.inkscape.org/namespaces/inkscape"
   width="450"
   height="127"
   version="1.1"
   id="svg28"
   sodipodi:docname="logo.svg"
   inkscape:version="1.0.2-2 (e86c870879, 2021-01-15)"
   viewBox="0 0.2 450.41108 126.98599">
  <sodipodi:namedview
     pagecolor="#ffffff"
     bordercolor="#666666"
     borderopacity="1"
     objecttolerance="10"
     gridtolerance="10"
     guidetolerance="10"
     inkscape:pageopacity="0"
     inkscape:pageshadow="2"
     inkscape:window-width="1920"
     inkscape:window-height="1017"
     id="namedview857"
     showgrid="false"
     inkscape:pagecheckerboard="true"
     inkscape:zoom="1.7561961"
     inkscape:cx="226.78148"
     inkscape:cy="7.8322949"
     inkscape:window-x="-8"
     inkscape:window-y="-8"
     inkscape:window-maximized="1"
     inkscape:current-layer="svg28"
     inkscape:document-rotation="0"
     borderlayer="false"
     fit-margin-top="0"
     fit-margin-left="0"
     fit-margin-right="0"
     fit-margin-bottom="0"
     lock-margins="false"
     viewbox-height="158.3"
     viewbox-y="0.2"
     viewbox-width="548.00757"
     inkscape:snap-global="false" />
  <metadata
     id="metadata34">
    <rdf:RDF>
      <cc:Work
         rdf:about="">
        <dc:format>image/svg+xml</dc:format>
        <dc:type
           rdf:resource="http://purl.org/dc/dcmitype/StillImage" />
        <dc:title></dc:title>
      </cc:Work>
    </rdf:RDF>
  </metadata>
  <defs
     id="defs32" />
  <rect
     id="backgroundrect"
     width="100%"
     height="100%"
     x="0"
     y="0.13518652"
     fill="none"
     stroke="none" />
  <g
     class="currentLayer"
     id="g26"
     transform="translate(-22.165172,-17.999955)">
    <path
       fill="#f44336"
       stroke="#f44336"
       stroke-width="0"
       stroke-linejoin="round"
       stroke-dashoffset=""
       fill-rule="nonzero"
       marker-start=""
       marker-mid=""
       marker-end=""
       id="svg_1"
       d="m 50.298638,97.16611 v 0 c 0,-26.299273 21.319778,-47.619051 47.619051,-47.619051 v 0 c 12.629351,0 24.741451,5.01699 33.671751,13.947294 8.9303,8.930308 13.9473,21.042396 13.9473,33.671757 v 0 c 0,26.29927 -21.31978,47.61905 -47.619051,47.61905 v 0 c -26.29927,0 -47.619051,-21.31978 -47.619051,-47.61905 z m 23.809525,0 v 0 c 0,13.14963 10.659895,23.80953 23.809526,23.80953 13.149641,0 23.809521,-10.6599 23.809521,-23.80953 0,-13.149633 -10.65989,-23.809525 -23.809521,-23.809525 v 0 c -13.149631,0 -23.809526,10.659895 -23.809526,23.809525 z"
       stroke-opacity="1"
       fill-opacity="1" />
    <path
       fill="#f2f2f2"
       stroke-linejoin="round"
       stroke-dashoffset=""
       fill-rule="nonzero"
       marker-start=""
       marker-mid=""
       marker-end=""
       id="svg_2"
       d="M 41.539714,67.049234 60.362382,66.815325 42.001932,48.84443 23.641522,30.873574 l 5.773522,-5.898675 5.773529,-5.898681 18.149779,17.764693 c 9.982364,9.770568 18.442395,17.465707 18.800055,17.100294 0.357653,-0.365406 0.580615,-8.542925 0.495476,-18.172249 l -0.154832,-17.507899 8.162555,7.989369 8.162524,7.989339 0.241097,24.691459 0.241096,24.691447 -24.691462,0.241092 -24.691459,0.241097 -8.593185,-8.410862 -8.593204,-8.410882 18.822698,-0.233888 z"
       fill-opacity="1"
       stroke-opacity="1" />
    <g
       aria-label="WatchIN"
       id="text38" />
  </g>
  <g
     aria-label="WatchIN"
     id="text855"
     style="font-style:normal;font-weight:normal;font-size:85.4113px;line-height:0.95;font-family:sans-serif;letter-spacing:-2.00183px;fill:#000000;fill-opacity:1;stroke:none;stroke-width:1.00091">
    <path
       id="path885"
       style="font-style:normal;font-variant:normal;font-weight:500;font-stretch:normal;font-size:85.4113px;font-family:Roboto;-inkscape-font-specification:'Roboto Medium';fill:#f2f2f2;stroke-width:1.00091"
       sodipodi:type="inkscape:offset"
       inkscape:radius="0"
       inkscape:original="M 330.72852 34.423828 L 330.72852 98.482422 L 340.86133 98.482422 L 340.86133 66.244141 C 342.86316 62.62973 345.89386 60.822266 349.95312 60.822266 C 352.56662 60.822266 354.54045 61.476454 355.875 62.783203 C 357.23735 64.062148 357.91992 66.259094 357.91992 69.373047 L 357.91992 98.482422 L 368.05273 98.482422 L 368.05273 68.998047 C 367.91372 58.0158 363.03396 52.523438 353.41406 52.523438 C 348.35389 52.523437 344.16991 54.442461 340.86133 58.279297 L 340.86133 34.423828 L 330.72852 34.423828 z M 142.59766 37.759766 L 156.60938 98.482422 L 166.74414 98.482422 L 178.54688 54.150391 L 190.09961 98.482422 L 200.19141 98.482422 L 214.20508 37.759766 L 203.73633 37.759766 L 194.39453 83.46875 L 182.92578 37.759766 L 174.08398 37.759766 L 162.49023 83.384766 L 153.06445 37.759766 L 142.59766 37.759766 z M 377.89648 37.759766 L 377.89648 98.482422 L 388.4043 98.482422 L 388.4043 37.759766 L 377.89648 37.759766 z M 399.37305 37.759766 L 399.37305 98.482422 L 409.92578 98.482422 L 409.92578 55.402344 L 436.99219 98.482422 L 447.54297 98.482422 L 447.54297 37.759766 L 437.07422 37.759766 L 437.07422 81.007812 L 409.92578 37.759766 L 399.37305 37.759766 z M 264.33398 42.388672 L 264.33398 53.357422 L 256.91016 53.357422 L 256.91016 60.865234 L 264.33398 60.865234 L 264.33398 86.429688 C 264.33398 95.020863 268.22683 99.316406 276.01172 99.316406 C 278.15256 99.316406 280.37593 98.996895 282.68359 98.357422 L 282.68359 90.517578 C 281.48806 90.795609 280.30641 90.933594 279.13867 90.933594 C 277.38707 90.933594 276.16383 90.559279 275.46875 89.808594 C 274.80148 89.030106 274.46875 87.778484 274.46875 86.054688 L 274.46875 60.865234 L 282.43359 60.865234 L 282.43359 53.357422 L 274.46875 53.357422 L 274.46875 42.388672 L 264.33398 42.388672 z M 235.68164 52.523438 C 232.20625 52.523438 229.05076 53.136036 226.21484 54.359375 C 223.40672 55.582714 221.18336 57.27862 219.54297 59.447266 C 217.90258 61.588109 217.08203 63.89466 217.08203 66.369141 L 227.2168 66.369141 C 227.2168 64.589739 227.95417 63.130164 229.42773 61.990234 C 230.9013 60.822502 232.79 60.238281 235.09766 60.238281 C 237.76676 60.238281 239.75575 60.947273 241.0625 62.365234 C 242.36925 63.755392 243.02344 65.619613 243.02344 67.955078 L 243.02344 70.916016 L 236.80859 70.916016 C 230.16364 70.916016 225.04754 72.209229 221.46094 74.794922 C 217.90213 77.352813 216.12305 81.035757 216.12305 85.845703 C 216.12305 89.654736 217.55424 92.851806 220.41797 95.4375 C 223.28169 98.023193 226.9798 99.316406 231.51172 99.316406 C 236.18265 99.316406 240.1303 97.633713 243.35547 94.269531 C 243.68911 96.215753 244.07859 97.620524 244.52344 98.482422 L 254.86719 98.482422 L 254.86719 97.773438 C 253.72726 95.354563 253.15625 92.115902 253.15625 88.056641 L 253.15625 67.705078 C 253.07284 62.895132 251.46011 59.168644 248.31836 56.527344 C 245.1766 53.85824 240.96424 52.523437 235.68164 52.523438 z M 306.78906 52.523438 C 300.44994 52.523438 295.44541 54.595611 291.77539 58.738281 C 288.10538 62.853149 286.26953 68.343557 286.26953 75.210938 L 286.26953 76.253906 C 286.26953 83.454924 288.11859 89.098483 291.81641 93.185547 C 295.51423 97.272611 300.51876 99.316406 306.83008 99.316406 C 310.08305 99.316406 313.11376 98.607414 315.92188 97.189453 C 318.72999 95.771492 320.95532 93.852468 322.5957 91.433594 C 324.23609 88.986916 325.11144 86.360853 325.22266 83.552734 L 315.67188 83.552734 C 315.56066 85.72138 314.6721 87.542058 313.00391 89.015625 C 311.33572 90.489192 309.23516 91.226562 306.70508 91.226562 C 303.3687 91.226562 300.81065 90.029743 299.03125 87.638672 C 297.27965 85.219797 296.4043 81.563278 296.4043 76.669922 L 296.4043 75.044922 C 296.4321 70.207172 297.33583 66.605456 299.11523 64.242188 C 300.89463 61.851116 303.4243 60.65625 306.70508 60.65625 C 309.26296 60.65625 311.36352 61.490014 313.00391 63.158203 C 314.6721 64.826392 315.56066 66.953369 315.67188 69.539062 L 325.22266 69.539062 C 325.05584 64.451085 323.27675 60.350282 319.88477 57.236328 C 316.52059 54.094571 312.15507 52.523438 306.78906 52.523438 z M 237.55859 77.296875 L 243.02344 77.296875 L 243.02344 85.804688 C 242.13374 87.445074 240.79893 88.751499 239.01953 89.724609 C 237.26793 90.69772 235.3905 91.183594 233.38867 91.183594 C 231.22003 91.183594 229.48253 90.614539 228.17578 89.474609 C 226.89683 88.306877 226.25781 86.748956 226.25781 84.802734 C 226.25781 82.411663 227.20314 80.562608 229.09375 79.255859 C 230.98436 77.949111 233.80517 77.296875 237.55859 77.296875 z "
       d="m 330.72852,34.423828 v 64.058594 h 10.13281 V 66.244141 c 2.00183,-3.614411 5.03253,-5.421875 9.09179,-5.421875 2.6135,0 4.58733,0.654188 5.92188,1.960937 1.36235,1.278945 2.04492,3.475891 2.04492,6.589844 v 29.109375 h 10.13281 V 68.998047 C 367.91372,58.0158 363.03396,52.523438 353.41406,52.523438 c -5.06017,-10e-7 -9.24415,1.919023 -12.55273,5.755859 V 34.423828 Z m -188.13086,3.335938 14.01172,60.722656 h 10.13476 l 11.80274,-44.332031 11.55273,44.332031 h 10.0918 l 14.01367,-60.722656 h -10.46875 l -9.3418,45.708984 -11.46875,-45.708984 h -8.8418 l -11.59375,45.625 -9.42578,-45.625 z m 235.29882,0 V 98.482422 H 388.4043 V 37.759766 Z m 21.47657,0 v 60.722656 h 10.55273 V 55.402344 l 27.06641,43.080078 h 10.55078 V 37.759766 H 437.07422 V 81.007812 L 409.92578,37.759766 Z m -135.03907,4.628906 v 10.96875 h -7.42382 v 7.507812 h 7.42382 v 25.564454 c 0,8.591175 3.89285,12.886718 11.67774,12.886718 2.14084,0 4.36421,-0.319511 6.67187,-0.958984 v -7.839844 c -1.19553,0.278031 -2.37718,0.416016 -3.54492,0.416016 -1.7516,0 -2.97484,-0.374315 -3.66992,-1.125 -0.66727,-0.778488 -1,-2.03011 -1,-3.753906 V 60.865234 h 7.96484 v -7.507812 h -7.96484 v -10.96875 z m -28.65234,10.134766 c -3.47539,0 -6.63088,0.612598 -9.4668,1.835937 -2.80812,1.223339 -5.03148,2.919245 -6.67187,5.087891 -1.64039,2.140843 -2.46094,4.447394 -2.46094,6.921875 h 10.13477 c 0,-1.779402 0.73737,-3.238977 2.21093,-4.378907 1.47357,-1.167732 3.36227,-1.751953 5.66993,-1.751953 2.6691,0 4.65809,0.708992 5.96484,2.126953 1.30675,1.390158 1.96094,3.254379 1.96094,5.589844 v 2.960938 h -6.21485 c -6.64495,0 -11.76105,1.293213 -15.34765,3.878906 -3.55881,2.557891 -5.33789,6.240835 -5.33789,11.050781 0,3.809033 1.43119,7.006103 4.29492,9.591797 2.86372,2.585693 6.56183,3.878906 11.09375,3.878906 4.67093,0 8.61858,-1.682693 11.84375,-5.046875 0.33364,1.946222 0.72312,3.350993 1.16797,4.212891 h 10.34375 v -0.708984 c -1.13993,-2.418875 -1.71094,-5.657536 -1.71094,-9.716797 V 67.705078 c -0.0834,-4.809946 -1.69614,-8.536434 -4.83789,-11.177734 -3.14176,-2.669104 -7.35412,-4.003907 -12.63672,-4.003906 z m 71.10742,0 c -6.33912,0 -11.34365,2.072173 -15.01367,6.214843 -3.67001,4.114868 -5.50586,9.605276 -5.50586,16.472657 v 1.042968 c 0,7.201018 1.84906,12.844577 5.54688,16.931641 3.69782,4.087064 8.70235,6.130859 15.01367,6.130859 3.25297,0 6.28368,-0.708992 9.0918,-2.126953 2.80811,-1.417961 5.03344,-3.336985 6.67382,-5.755859 1.64039,-2.446678 2.51574,-5.072741 2.62696,-7.88086 h -9.55078 c -0.11122,2.168646 -0.99978,3.989324 -2.66797,5.462891 -1.66819,1.473567 -3.76875,2.210937 -6.29883,2.210937 -3.33638,0 -5.89443,-1.196819 -7.67383,-3.58789 -1.7516,-2.418875 -2.62695,-6.075394 -2.62695,-10.96875 v -1.625 c 0.0278,-4.83775 0.93153,-8.439466 2.71093,-10.802734 1.7794,-2.391072 4.30907,-3.585938 7.58985,-3.585938 2.55788,0 4.65844,0.833764 6.29883,2.501953 1.66819,1.668189 2.55675,3.795166 2.66797,6.380859 h 9.55078 c -0.16682,-5.087977 -1.94591,-9.18878 -5.33789,-12.302734 -3.36418,-3.141757 -7.7297,-4.71289 -13.09571,-4.71289 z m -69.23047,24.773437 h 5.46485 v 8.507813 c -0.8897,1.640386 -2.22451,2.946811 -4.00391,3.919921 -1.7516,0.973111 -3.62903,1.458985 -5.63086,1.458985 -2.16864,0 -3.90614,-0.569055 -5.21289,-1.708985 -1.27895,-1.167732 -1.91797,-2.725653 -1.91797,-4.671875 0,-2.391071 0.94533,-4.240126 2.83594,-5.546875 1.89061,-1.306748 4.71142,-1.958984 8.46484,-1.958984 z" />
  </g>
</svg>
